<svg width="30" height="30" viewBox="0 0 30 30" fill="none" xmlns="http://www.w3.org/2000/svg">
<path d="M15.0002 19C9.24021 19 8.21983 13.2595 8.03907 8.70647C7.98879 7.43998 7.96365 6.80673 8.43937 6.22083C8.91508 5.63494 9.48445 5.53887 10.6232 5.34674C11.7472 5.15709 13.2166 5 15.0002 5C16.7837 5 18.2531 5.15709 19.3771 5.34674C20.5159 5.53887 21.0852 5.63494 21.5609 6.22083C22.0367 6.80673 22.0115 7.43998 21.9612 8.70647C21.7805 13.2595 20.7601 19 15.0002 19Z" stroke="#111E26" stroke-width="1.5"/>
<path d="M15 19V22" stroke="#111E26" stroke-width="1.5" stroke-linecap="round"/>
<path d="M18.5 25H11.5L11.8392 23.3039C11.9327 22.8365 12.3431 22.5 12.8198 22.5H17.1802C17.6569 22.5 18.0673 22.8365 18.1608 23.3039L18.5 25Z" stroke="#111E26" stroke-width="1.5" stroke-linecap="round" stroke-linejoin="round"/>
<path d="M22 8L22.9486 8.31621C23.9387 8.64623 24.4337 8.81124 24.7168 9.20408C25 9.59692 25 10.1187 24.9999 11.1623L24.9999 11.2349C24.9999 12.0956 24.9999 12.526 24.7927 12.8781C24.5855 13.2302 24.2093 13.4392 23.4569 13.8572L20.5 15.5" stroke="#111E26" stroke-width="1.5"/>
<path d="M7.99994 8L7.05132 8.31621C6.06126 8.64623 5.56623 8.81124 5.2831 9.20408C4.99996 9.59692 4.99997 10.1187 5 11.1623L5 11.2349C5.00003 12.0956 5.00004 12.526 5.20723 12.8781C5.41441 13.2302 5.79063 13.4392 6.54305 13.8572L9.49994 15.5" stroke="#111E26" stroke-width="1.5"/>
<path d="M14.1459 9.02251C14.5259 8.34084 14.7159 8 15 8C15.2841 8 15.4741 8.34084 15.8541 9.02251L15.9524 9.19887C16.0603 9.39258 16.1143 9.48944 16.1985 9.55334C16.2827 9.61725 16.3875 9.64097 16.5972 9.68841L16.7881 9.73161C17.526 9.89857 17.895 9.98205 17.9828 10.2643C18.0706 10.5466 17.819 10.8407 17.316 11.429L17.1858 11.5812C17.0429 11.7483 16.9714 11.8319 16.9392 11.9353C16.9071 12.0387 16.9179 12.1502 16.9395 12.3733L16.9592 12.5763C17.0352 13.3612 17.0733 13.7536 16.8435 13.9281C16.6136 14.1025 16.2682 13.9435 15.5773 13.6254L15.3986 13.5431C15.2022 13.4527 15.1041 13.4075 15 13.4075C14.8959 13.4075 14.7978 13.4527 14.6014 13.5431L14.4227 13.6254C13.7318 13.9435 13.3864 14.1025 13.1565 13.9281C12.9267 13.7536 12.9648 13.3612 13.0408 12.5763L13.0605 12.3733C13.0821 12.1502 13.0929 12.0387 13.0608 11.9353C13.0286 11.8319 12.9571 11.7483 12.8142 11.5812L12.684 11.429C12.181 10.8407 11.9294 10.5466 12.0172 10.2643C12.105 9.98205 12.474 9.89857 13.2119 9.73161L13.4028 9.68841C13.6125 9.64097 13.7173 9.61725 13.8015 9.55334C13.8857 9.48944 13.9397 9.39258 14.0476 9.19887L14.1459 9.02251Z" stroke="#111E26" stroke-width="1.5"/>
<path d="M21 25H9" stroke="#111E26" stroke-width="1.5" stroke-linecap="round"/>
</svg>
