<svg width="30" height="30" viewBox="0 0 30 30" fill="none" xmlns="http://www.w3.org/2000/svg">
<path d="M23 15C23 19.4183 19.4183 23 15 23C10.5817 23 7 19.4183 7 15C7 10.5817 10.5817 7 15 7C19.4183 7 23 10.5817 23 15Z" stroke="#CCCCCC" stroke-width="1.5"/>
<path d="M18 15C18 16.6569 16.6569 18 15 18C13.3431 18 12 16.6569 12 15C12 13.3431 13.3431 12 15 12C16.6569 12 18 13.3431 18 15Z" stroke="#CCCCCC" stroke-width="1.5"/>
<path d="M5 15L7 15" stroke="#CCCCCC" stroke-width="1.5" stroke-linecap="round"/>
<path d="M23 15L25 15" stroke="#CCCCCC" stroke-width="1.5" stroke-linecap="round"/>
<path d="M15 7V5" stroke="#CCCCCC" stroke-width="1.5" stroke-linecap="round"/>
<path d="M15 25V23" stroke="#CCCCCC" stroke-width="1.5" stroke-linecap="round"/>
</svg>
