<svg width="22" height="22" viewBox="0 0 22 22" fill="none" xmlns="http://www.w3.org/2000/svg">
<g clip-path="url(#clip0_0_382)">
<path d="M15.5136 9.33181C15.7874 9.60557 16.2312 9.60557 16.505 9.33181C16.7788 9.05805 16.7788 8.6142 16.505 8.34044C16.2312 8.06668 15.7874 8.06668 15.5136 8.34044C15.2399 8.6142 15.2399 9.05805 15.5136 9.33181Z" fill="#111E26"/>
<path d="M16.4943 7.48696C16.768 7.76072 17.2119 7.76072 17.4856 7.48696C17.7594 7.2132 17.7594 6.76935 17.4856 6.49559C17.2119 6.22183 16.768 6.22183 16.4943 6.49559C16.2205 6.76935 16.2205 7.2132 16.4943 7.48696Z" fill="#111E26"/>
<path d="M13.083 9.33183C13.3567 9.60559 13.8006 9.60559 14.0743 9.33183C14.3481 9.05807 14.3481 8.61422 14.0743 8.34046C13.8006 8.0667 13.3567 8.0667 13.083 8.34046C12.8092 8.61422 12.8092 9.05807 13.083 9.33183Z" fill="#111E26"/>
<path d="M9.49556 7.48696C9.76932 7.76072 10.2132 7.76072 10.4869 7.48696C10.7607 7.2132 10.7607 6.76935 10.4869 6.49559C10.2132 6.22183 9.76932 6.22183 9.49556 6.49559C9.22181 6.76935 9.22181 7.2132 9.49556 7.48696Z" fill="#111E26"/>
<path d="M10.4908 9.48696C10.7646 9.76072 11.2084 9.76072 11.4822 9.48696C11.756 9.2132 11.756 8.76935 11.4822 8.49559C11.2084 8.22183 10.7646 8.22183 10.4908 8.49559C10.2171 8.76935 10.2171 9.2132 10.4908 9.48696Z" fill="#111E26"/>
<path d="M14.2963 11.0852C14.5701 11.359 15.014 11.359 15.2877 11.0852C15.5615 10.8115 15.5615 10.3676 15.2877 10.0939C15.014 9.8201 14.5701 9.8201 14.2963 10.0939C14.0226 10.3676 14.0226 10.8115 14.2963 11.0852Z" fill="#111E26"/>
<path d="M13.0947 12.787C13.3685 13.0608 13.8123 13.0608 14.0861 12.787C14.3599 12.5133 14.3599 12.0694 14.0861 11.7956C13.8123 11.5219 13.3685 11.5219 13.0947 11.7956C12.821 12.0694 12.821 12.5133 13.0947 12.787Z" fill="#111E26"/>
<path d="M14.2963 5.48696C14.5701 5.76072 15.0139 5.76072 15.2877 5.48696C15.5615 5.2132 15.5615 4.76935 15.2877 4.49559C15.0139 4.22183 14.5701 4.22183 14.2963 4.49559C14.0226 4.76935 14.0226 5.2132 14.2963 5.48696Z" fill="#111E26"/>
<path d="M14.3024 7.48696C14.5762 7.76072 15.0201 7.76072 15.2938 7.48696C15.5676 7.2132 15.5676 6.76935 15.2938 6.49559C15.0201 6.22183 14.5762 6.22183 14.3024 6.49559C14.0287 6.76935 14.0287 7.2132 14.3024 7.48696Z" fill="#111E26"/>
<path d="M11.8628 11.0855C12.1365 11.3592 12.5804 11.3592 12.8541 11.0855C13.1279 10.8117 13.1279 10.3679 12.8541 10.0941C12.5804 9.82034 12.1365 9.82034 11.8628 10.0941C11.589 10.3679 11.589 10.8117 11.8628 11.0855Z" fill="#111E26"/>
<path d="M11.8628 5.48721C12.1365 5.76097 12.5804 5.76097 12.8541 5.48721C13.1279 5.21345 13.1279 4.7696 12.8541 4.49584C12.5804 4.22208 12.1365 4.22208 11.8628 4.49584C11.589 4.7696 11.589 5.21345 11.8628 5.48721Z" fill="#111E26"/>
<path d="M11.8689 7.48721C12.1426 7.76097 12.5865 7.76097 12.8602 7.48721C13.134 7.21345 13.134 6.7696 12.8602 6.49584C12.5865 6.22208 12.1426 6.22208 11.8689 6.49584C11.5951 6.7696 11.5951 7.21345 11.8689 7.48721Z" fill="#111E26"/>
<path d="M11.0173 13.1847C11.2777 13.0284 11.6155 13.1127 11.7718 13.373C11.9281 13.6335 11.8438 13.9712 11.5835 14.1276C10.9587 14.5024 10.1471 14.6634 9.43889 14.7286C8.71823 14.795 8.03244 14.7685 7.6098 14.7216L7.73133 13.6278C8.08652 13.6672 8.69759 13.6923 9.33811 13.6333C9.99088 13.5732 10.6051 13.4319 11.0173 13.1847Z" fill="#111E26"/>
<path d="M8.6614 10.8279C8.81765 10.5675 8.73338 10.2297 8.47303 10.0734C8.21261 9.91713 7.87482 10.0014 7.7185 10.2618C7.34365 10.8865 7.18263 11.6982 7.11742 12.4063C7.05107 13.127 7.07755 13.8128 7.1245 14.2354L8.21831 14.1139C8.17885 13.7587 8.15377 13.1476 8.21274 12.5071C8.27286 11.8543 8.41414 11.2401 8.6614 10.8279Z" fill="#111E26"/>
<path d="M7.15499 13.6561L8.19208 14.6932L7.59383 15.2915C7.13266 15.7526 6.76372 16.2976 6.50681 16.897L-nan -nanL6.50681 16.897C6.2499 17.4965 5.88096 18.0414 5.41979 18.5026L4.04372 19.8787L-nan -nanL4.04372 19.8787C3.73897 20.1834 3.26591 20.2417 2.89635 20.0199L2.54323 19.808C2.33679 19.6842 2.16402 19.5114 2.04016 19.305L1.82829 18.9519C1.60655 18.5823 1.66479 18.1092 1.96954 17.8045L-nan -nanL1.96954 17.8045L3.34561 16.4284C3.80678 15.9673 4.35171 15.5983 4.95117 15.3414L-nan -nanL4.95117 15.3414C5.55063 15.0845 6.09557 14.7156 6.55674 14.2544L7.15499 13.6561Z" fill="#111E26"/>
<path d="M16.9456 10.863C17.3822 10.4264 17.5349 10.2715 17.6414 10.1379C18.5992 8.93492 18.5992 7.22897 17.6414 6.026C17.5349 5.89235 17.3822 5.73749 16.9456 5.30084L16.2853 4.64051C15.8486 4.20387 15.6938 4.05118 15.5601 3.94473C14.3571 2.98691 12.6512 2.98691 11.4482 3.94473C11.3146 4.05118 11.1597 4.20387 10.7231 4.64051L8.76282 6.60075C7.73438 7.62919 8.06965 9.37148 9.40645 9.94445C10.4109 10.3749 11.2112 11.1752 11.6417 12.1797C12.2146 13.5165 13.9569 13.8517 14.9854 12.8233L16.9456 10.863ZM15.7632 13.6011C14.2339 15.1304 11.6765 14.6952 10.7185 12.801L10.6309 12.6131C10.3117 11.8683 9.71781 11.2744 8.97297 10.9552L8.7851 10.8676C6.89093 9.90956 6.45568 7.35225 7.985 5.82293L9.94525 3.86269C10.3609 3.44705 10.5689 3.23884 10.7636 3.08386C12.3675 1.80697 14.6409 1.80697 16.2448 3.08386C16.342 3.16133 16.4427 3.25232 16.5709 3.37554L17.0631 3.86269L17.7234 4.52303C18.1391 4.93867 18.3473 5.14671 18.5023 5.34136C19.7791 6.94525 19.7791 9.21864 18.5023 10.8225C18.3473 11.0172 18.1391 11.2252 17.7234 11.6409L15.7632 13.6011Z" fill="#111E26"/>
</g>
<defs>
<clipPath id="clip0_0_382">
<rect width="22" height="22" fill="white"/>
</clipPath>
</defs>
</svg>
