<svg width="22" height="22" viewBox="0 0 22 22" fill="none" xmlns="http://www.w3.org/2000/svg">
<g clip-path="url(#clip0_0_405)">
<path d="M18.5721 5.78131L16.006 3.21528C14.6655 1.875 12.4889 1.88562 11.1613 3.23876L6.81434 7.66854C5.88573 8.61507 5.59058 10.0145 6.05683 11.2559L6.73493 13.0609C7.08191 13.9846 7.81221 14.7128 8.73679 15.0573L10.5239 15.7229C11.7597 16.1833 13.1503 15.8901 14.0946 14.9696L18.5417 10.6344C19.9021 9.30796 19.9156 7.12485 18.5721 5.78131Z" stroke="#111E26" stroke-width="1.1"/>
<path d="M8.19617 15.2773C8.21394 15.2648 8.21613 15.2393 8.20076 15.2239L6.47559 13.4987C6.46021 13.4833 6.43469 13.4855 6.42217 13.5033L5.32718 15.0569C5.28446 15.1175 5.23663 15.1744 5.18419 15.2268L3.83203 16.579L2.55534 17.8557C2.45322 17.9578 2.33476 18.0421 2.20484 18.1052L1.56892 18.414C1.48213 18.4561 1.403 18.5124 1.33478 18.5807C0.996544 18.9189 0.996544 19.4673 1.33478 19.8055L1.89396 20.3647C2.2322 20.7029 2.78059 20.7029 3.11882 20.3647C3.18704 20.2965 3.24338 20.2173 3.28552 20.1306L3.59428 19.4946C3.65735 19.3647 3.7417 19.2463 3.84382 19.1441L5.12051 17.8674L6.47267 16.5153C6.5251 16.4629 6.58193 16.415 6.64254 16.3723L8.19617 15.2773Z" fill="#111E26"/>
<rect width="7.76207" height="8.01626" rx="2.14152" transform="matrix(-0.707107 -0.707107 -0.707107 0.707107 18.9838 8.27521)" fill="#111E26"/>
<rect width="6.00067" height="1.1" rx="0.55" transform="matrix(-0.707107 -0.707107 -0.707107 0.707107 12.3437 13.6669)" fill="#111E26"/>
</g>
<defs>
<clipPath id="clip0_0_405">
<rect width="22" height="22" fill="white"/>
</clipPath>
</defs>
</svg>
