<svg width="30" height="30" viewBox="0 0 30 30" fill="none" xmlns="http://www.w3.org/2000/svg">
<path d="M7.75829 7.58764C8.04698 7.29061 8.04022 6.81578 7.74318 6.52709C7.44615 6.23839 6.97133 6.24516 6.68263 6.54219L7.22046 7.06491L7.75829 7.58764ZM11.248 5.77724L10.7102 5.25453C10.4273 5.54561 10.4273 6.0089 10.7102 6.29997L11.248 5.77724ZM12.4373 8.07693C12.7259 8.37397 13.2008 8.38073 13.4978 8.09204C13.7948 7.80334 13.8016 7.32852 13.5129 7.03148L12.9751 7.55421L12.4373 8.07693ZM13.5129 4.52287C13.8016 4.22582 13.7948 3.751 13.4978 3.46231C13.2007 3.17363 12.7259 3.18041 12.4372 3.47745L12.9751 4.00016L13.5129 4.52287ZM14.8 24V23.25C12.6852 23.25 11.1767 23.2483 10.0309 23.0898C8.90896 22.9346 8.24687 22.642 7.75829 22.1393L7.22046 22.662L6.68263 23.1847C7.49449 24.02 8.52915 24.3964 9.82536 24.5757C11.0977 24.7517 12.7288 24.75 14.8 24.75V24ZM5.92001 14.8635H5.17001C5.17001 16.9963 5.16851 18.6694 5.33889 19.9733C5.51182 21.2966 5.87367 22.3524 6.68263 23.1847L7.22046 22.662L7.75829 22.1393C7.2668 21.6336 6.97843 20.9436 6.82625 19.7789C6.67152 18.5948 6.67001 17.0376 6.67001 14.8635H5.92001ZM23.68 14.8635H22.93C22.93 17.0376 22.9285 18.5948 22.7738 19.7789C22.6216 20.9436 22.3332 21.6336 21.8417 22.1393L22.3796 22.662L22.9174 23.1847C23.7264 22.3524 24.0882 21.2966 24.2611 19.9733C24.4315 18.6694 24.43 16.9963 24.43 14.8635H23.68ZM14.8 24V24.75C16.8713 24.75 18.5023 24.7517 19.7747 24.5757C21.0709 24.3964 22.1055 24.02 22.9174 23.1847L22.3796 22.662L21.8417 22.1393C21.3532 22.642 20.6911 22.9346 19.5691 23.0898C18.4234 23.2483 16.9148 23.25 14.8 23.25V24ZM14.8 5.7269V6.4769C16.9148 6.4769 18.4234 6.47858 19.5691 6.63708C20.6911 6.79227 21.3532 7.08494 21.8417 7.58764L22.3796 7.06491L22.9174 6.54219C22.1055 5.70687 21.0709 5.33053 19.7747 5.15122C18.5023 4.97521 16.8713 4.9769 14.8 4.9769V5.7269ZM23.68 14.8635H24.43C24.43 12.7306 24.4315 11.0575 24.2611 9.75363C24.0882 8.43028 23.7264 7.37452 22.9174 6.54219L22.3796 7.06491L21.8417 7.58764C22.3332 8.09333 22.6216 8.78333 22.7738 9.94799C22.9285 11.1321 22.93 12.6893 22.93 14.8635H23.68ZM5.92001 14.8635H6.67001C6.67001 12.6893 6.67152 11.1321 6.82625 9.94799C6.97843 8.78333 7.2668 8.09333 7.75829 7.58764L7.22046 7.06491L6.68263 6.54219C5.87367 7.37452 5.51182 8.43028 5.33889 9.75363C5.16851 11.0575 5.17001 12.7306 5.17001 14.8635H5.92001ZM14.8 5.7269V4.9769C13.4038 4.9769 12.2146 4.97668 11.2096 5.02823L11.248 5.77724L11.2864 6.52626C12.2447 6.47711 13.3908 6.4769 14.8 6.4769V5.7269ZM11.248 5.77724L10.7102 6.29997L12.4373 8.07693L12.9751 7.55421L13.5129 7.03148L11.7858 5.25452L11.248 5.77724ZM11.248 5.77724L11.7859 6.29995L13.5129 4.52287L12.9751 4.00016L12.4372 3.47745L10.7102 5.25453L11.248 5.77724Z" fill="#111E26"/>
<path d="M11.3467 15.5L13.32 17.5L18.2533 12.5" stroke="#111E26" stroke-width="1.5" stroke-linecap="round" stroke-linejoin="round"/>
</svg>
